<svg xmlns="http://www.w3.org/2000/svg" width="24" height="26.667" viewBox="0 0 24 26.667">
  <g id="Outline" transform="translate(-5 -2)">
    <g id="Outline-2" data-name="Outline" transform="translate(5 2)">
      <circle id="Ellipse_230" data-name="Ellipse 230" cx="0.5" cy="0.5" r="0.5" transform="translate(18 13.333)" fill="#535353"/>
      <circle id="Ellipse_231" data-name="Ellipse 231" cx="0.5" cy="0.5" r="0.5" transform="translate(8 11.333)" fill="#535353"/>
      <ellipse id="Ellipse_232" data-name="Ellipse 232" cy="0.5" ry="0.5" transform="translate(16 17.333)" fill="#535353"/>
      <circle id="Ellipse_233" data-name="Ellipse 233" cx="0.5" cy="0.5" r="0.5" transform="translate(13 10.333)" fill="#535353"/>
      <path id="Path_1467" data-name="Path 1467" d="M32.2,32.775a.444.444,0,0,0,.627,0l2.222-2.222a.444.444,0,1,0-.627-.627L32.2,32.148A.444.444,0,0,0,32.2,32.775Z" transform="translate(-20.038 -17.428)" fill="#535353"/>
      <path id="Path_1468" data-name="Path 1468" d="M15.9,41a.444.444,0,0,0,.56.582s8.2-2.622,8.356-2.756c.96-.96-1.56-3.556-2.071-4.089s-3.111-3.027-4.089-2.071C18.506,32.8,15.9,41,15.9,41Zm5.551-1.982a15.325,15.325,0,0,1-3-3.049l.444-1.418a13.547,13.547,0,0,0,4,4Zm-2.9.071a11.138,11.138,0,0,1-.813-.889l.382-1.187a16.742,16.742,0,0,0,2.311,2.347l-1.187.382C19.039,39.537,18.79,39.328,18.555,39.092Zm-1.133.093a11.863,11.863,0,0,0,.844.862l-1.253.4Zm4.671-3.822a7.928,7.928,0,0,1,2.013,2.769,8.01,8.01,0,0,1-2.769-2.013,7.864,7.864,0,0,1-2.013-2.773A8.237,8.237,0,0,1,22.093,35.363Z" transform="translate(-11.039 -18.919)" fill="#535353"/>
      <path id="Path_1469" data-name="Path 1469" d="M36.558,38.462a.443.443,0,1,0,.627.627,1.911,1.911,0,0,1,2.667,0,.445.445,0,0,0,.631-.627A2.791,2.791,0,0,0,36.558,38.462Z" transform="translate(-22.461 -21.809)" fill="#535353"/>
      <path id="Path_1470" data-name="Path 1470" d="M27.837,27.073a.444.444,0,0,0,.631,0,2.791,2.791,0,0,0,0-3.947.446.446,0,0,0-.631.631,1.9,1.9,0,0,1,0,2.689A.444.444,0,0,0,27.837,27.073Z" transform="translate(-17.614 -13.664)" fill="#535353"/>
      <path id="Path_1471" data-name="Path 1471" d="M26.778,3.778H25.444V3.556a1.556,1.556,0,1,0-3.111,0v.222H18.556V3.556a1.556,1.556,0,1,0-3.111,0v.222H11.667V3.556a1.556,1.556,0,0,0-3.111,0v.222H7.222A2.222,2.222,0,0,0,5,6V19.778a.444.444,0,1,0,.889,0V10H28.111V20.667a.444.444,0,0,1-.444.444H25.444a2.222,2.222,0,0,0-2.222,2.222v2.222a.444.444,0,0,1-.444.444L7.222,25.973A1.333,1.333,0,0,1,5.889,24.64V23.333a.444.444,0,1,0-.889,0v3.111a2.222,2.222,0,0,0,2.222,2.222H26.778A2.222,2.222,0,0,0,29,26.444V6A2.222,2.222,0,0,0,26.778,3.778Zm-3.556-.222a.667.667,0,0,1,1.333,0V5.333a.667.667,0,0,1-1.333,0Zm-6.889,0a.667.667,0,0,1,1.333,0V5.333a.667.667,0,0,1-1.333,0Zm-6.889,0a.667.667,0,1,1,1.333,0V5.333a.667.667,0,0,1-1.333,0ZM5.889,9.111V6A1.333,1.333,0,0,1,7.222,4.667H8.556v.667a1.556,1.556,0,0,0,3.111,0V4.667h3.778v.667a1.556,1.556,0,0,0,3.111,0V4.667h3.778v.667a1.556,1.556,0,0,0,3.111,0V4.667h1.333A1.333,1.333,0,0,1,28.111,6V9.111ZM24.111,23.333A1.333,1.333,0,0,1,25.444,22h2.04l-3.373,3.373Zm2.667,4.444H7.222A1.333,1.333,0,0,1,5.889,26.4a2.178,2.178,0,0,0,1.333.444l15.7.04a2.222,2.222,0,0,0,1.578-.653l3.609-3.6v3.813A1.333,1.333,0,0,1,26.778,27.778Z" transform="translate(-5 -2)" fill="#535353"/>
      <circle id="Ellipse_234" data-name="Ellipse 234" cx="0.5" cy="0.5" r="0.5" transform="translate(0 19.333)" fill="#535353"/>
    </g>
  </g>
</svg>
