<svg xmlns="http://www.w3.org/2000/svg" width="22.7" height="22.7" viewBox="0 0 22.7 22.7">
  <g id="_9054857_bx_select_multiple_icon" data-name="9054857_bx_select_multiple_icon" transform="translate(-2 -2)">
    <path id="Path_1478" data-name="Path 1478" d="M21.89,2H8.27A2.272,2.272,0,0,0,6,4.27V17.89a2.272,2.272,0,0,0,2.27,2.27H21.89a2.272,2.272,0,0,0,2.27-2.27V4.27A2.272,2.272,0,0,0,21.89,2ZM8.27,17.89V4.27H21.89l0,13.62Z" transform="translate(0.54 0)" fill="#535353"/>
    <path id="Path_1479" data-name="Path 1479" d="M4.27,8.222H2v13.62a2.272,2.272,0,0,0,2.27,2.27H17.89v-2.27H4.27Zm10.139,3.994L12.45,10.257l-1.6,1.6,3.716,3.716,6.472-7.764L19.288,6.359Z" transform="translate(0 0.589)" fill="#535353"/>
  </g>
</svg>
