<svg xmlns="http://www.w3.org/2000/svg" width="17" height="17" viewBox="0 0 17 17">
  <g id="_1737371_notcorrect_sign_wrong_x_icon" data-name="1737371_notcorrect_sign_wrong_x_icon" transform="translate(-51.649 -51.648)">
    <path id="Path_1476" data-name="Path 1476" d="M60.149,68.648a8.5,8.5,0,1,0-8.5-8.5A8.509,8.509,0,0,0,60.149,68.648Zm0-1.341Z" transform="translate(0 0)" fill="#707070"/>
    <path id="Path_1477" data-name="Path 1477" d="M166.83,173.847a.9.9,0,0,0,1.275-.012l2.832-2.886,2.832,2.886a.9.9,0,1,0,1.286-1.263l-2.856-2.909,2.856-2.91a.9.9,0,0,0-1.287-1.263l-2.832,2.886L168.1,165.49a.9.9,0,1,0-1.287,1.263l2.855,2.91-2.855,2.909A.9.9,0,0,0,166.83,173.847Z" transform="translate(-110.787 -109.514)" fill="#fff"/>
  </g>
</svg>
