<svg xmlns="http://www.w3.org/2000/svg" width="28" height="28" viewBox="0 0 28 28">
  <g id="Layer_1" transform="translate(-1 -1)">
    <path id="Path_7573" data-name="Path 7573" d="M15,1a13.949,13.949,0,0,0-4.87.87l.406,1.094a12.883,12.883,0,1,1-3.7,2.144V9.167H8V3.333H2.167V4.5H5.74A14,14,0,1,0,15,1Z" fill="#cfcfcf"/>
    <path id="Path_7574" data-name="Path 7574" d="M18.169,25.517H17v1.169h9.349V25.517H25.18V23.522l-2.68-2.68,2.68-2.68V16.169h1.169V15H17v1.169h1.169v1.995l2.68,2.68-2.68,2.68Zm1.169-7.838V16.169h4.674V17.68l-2.337,2.337Zm2.337,3.99,2.337,2.337v1.511H19.337V24.006Z" transform="translate(-6.674 -5.843)" fill="#cfcfcf"/>
    <rect id="Rectangle_807" data-name="Rectangle 807" width="1" height="1" transform="translate(11.981 22.963)" fill="#cfcfcf"/>
    <rect id="Rectangle_808" data-name="Rectangle 808" width="2" height="1" transform="translate(13.977 22.963)" fill="#cfcfcf"/>
    <rect id="Rectangle_809" data-name="Rectangle 809" width="2" height="1" transform="translate(16.972 22.963)" fill="#cfcfcf"/>
  </g>
</svg>
