<?xml version="1.0" standalone="no"?>
<!DOCTYPE svg PUBLIC "-//W3C//DTD SVG 20010904//EN"
 "http://www.w3.org/TR/2001/REC-SVG-20010904/DTD/svg10.dtd">
<svg version="1.0" xmlns="http://www.w3.org/2000/svg"
 width="512.000000pt" height="512.000000pt" viewBox="0 0 512.000000 512.000000"
 preserveAspectRatio="xMidYMid meet">

<g transform="translate(0.000000,512.000000) scale(0.100000,-0.100000)"
fill="#000000" stroke="none">
<path d="M1410 4556 c-575 -266 -1055 -492 -1067 -504 l-23 -21 0 -1310 c0
-1232 1 -1310 18 -1329 19 -23 2113 -992 2143 -992 11 0 136 59 279 130 143
72 264 130 268 130 5 0 24 -28 42 -62 50 -96 110 -176 192 -254 382 -363 985
-348 1349 33 120 126 203 277 246 449 24 94 23 332 0 428 -47 188 -125 324
-269 469 l-108 107 0 1096 c0 744 -3 1102 -10 1115 -13 24 -1960 999 -1992
998 -13 0 -493 -218 -1068 -483z m1202 248 l131 -66 -59 -32 c-32 -18 -429
-225 -880 -460 l-822 -426 -191 87 c-105 49 -191 90 -191 93 0 4 1868 869
1878 870 1 0 61 -30 134 -66z m690 -355 c-13 -12 -1687 -912 -1697 -912 -15 0
-436 195 -431 200 2 3 397 209 877 458 l872 453 193 -96 c107 -53 190 -99 186
-103z m553 -266 c195 -98 355 -180 355 -183 0 -3 -390 -200 -866 -438 l-866
-433 -345 159 c-230 107 -340 163 -331 168 56 35 1676 903 1685 904 7 0 173
-80 368 -177z m-3118 -426 l222 -102 1 -721 c0 -673 1 -723 18 -742 19 -23
595 -272 628 -272 12 0 32 9 45 19 l24 19 5 680 5 680 355 -163 355 -164 3
-1191 c1 -654 0 -1190 -3 -1190 -3 0 -434 198 -957 440 l-953 439 -3 1192 c-2
1132 -1 1191 15 1185 10 -4 118 -53 240 -109z m3583 -866 l0 -980 -42 19 c-24
10 -81 29 -128 41 -120 33 -337 33 -459 1 -181 -47 -311 -123 -446 -257 -137
-138 -218 -279 -261 -461 -18 -76 -24 -282 -11 -376 l8 -57 -210 -106 -211
-105 0 1190 0 1190 878 439 c482 242 878 440 880 440 1 1 2 -440 2 -978z
m-2922 561 l122 -56 0 -637 0 -637 -127 54 c-71 30 -161 69 -200 86 l-73 31 0
643 0 643 78 -35 c42 -20 132 -61 200 -92z m2712 -1635 c100 -28 168 -57 243
-107 427 -278 490 -875 131 -1234 -359 -359 -956 -296 -1234 131 -192 292
-167 680 60 948 120 141 273 231 460 271 80 17 262 12 340 -9z"/>
<path d="M4063 1058 l-223 -222 -103 102 c-88 86 -109 102 -136 102 -43 0 -81
-38 -81 -82 0 -28 18 -50 143 -175 128 -129 146 -143 177 -143 32 0 55 21 297
263 237 236 263 266 263 295 0 44 -38 82 -82 82 -28 0 -56 -24 -255 -222z"/>
</g>
</svg>
