<svg xmlns="http://www.w3.org/2000/svg" width="28" height="28" viewBox="0 0 28 28">
  <g id="Layer_28" data-name="Layer 28" transform="translate(-1 -1)">
    <path id="Path_7575" data-name="Path 7575" d="M15,29A14,14,0,1,1,29,15,14,14,0,0,1,15,29ZM15,2.867A12.133,12.133,0,1,0,27.133,15,12.133,12.133,0,0,0,15,2.867Z" fill="#cfcfcf"/>
    <path id="Path_7576" data-name="Path 7576" d="M12.972,22a.83.83,0,0,1-.639-.32l-4.091-5a1.1,1.1,0,0,1,.083-1.362.8.8,0,0,1,1.2,0l3.451,4.21,7.533-9.21a.819.819,0,0,1,.857-.35.934.934,0,0,1,.666.708,1.1,1.1,0,0,1-.245,1l-8.172,10A.83.83,0,0,1,12.972,22Z" transform="translate(-0.007 -0.997)" fill="#cfcfcf"/>
  </g>
</svg>
