<svg xmlns="http://www.w3.org/2000/svg" width="25" height="18" viewBox="0 0 25 18">
  <g id="_1904660_email_envelope_letter_mail_message_icon" data-name="1904660_email_envelope_letter_mail_message_icon" transform="translate(0 -19)">
    <path id="Path_1" data-name="Path 1" d="M31.186,30.719a.571.571,0,0,0-.812-.121l-9.357,7.162a.19.19,0,0,1-.232,0l-9.173-7.194a.571.571,0,0,0-.813.112.605.605,0,0,0,.109.834l7.213,5.657-7.133,5.513a.609.609,0,0,0-.119.838.574.574,0,0,0,.817.122l7.392-5.723,1,.793a1.327,1.327,0,0,0,1.63.012l1.052-.805,7.479,5.723a.571.571,0,0,0,.812-.121.605.605,0,0,0-.118-.833l-7.2-5.52,7.338-5.622a.6.6,0,0,0,.118-.827Z" transform="translate(-8.49 -9.098)" fill="#535353"/>
    <path id="Path_2" data-name="Path 2" d="M22.07,19H2.93A2.965,2.965,0,0,0,0,22V34a2.965,2.965,0,0,0,2.93,3H22.07A2.965,2.965,0,0,0,25,34V22A2.965,2.965,0,0,0,22.07,19Zm1.758,15a1.779,1.779,0,0,1-1.758,1.8H2.93A1.779,1.779,0,0,1,1.172,34V22A1.779,1.779,0,0,1,2.93,20.2H22.07A1.779,1.779,0,0,1,23.828,22Z" transform="translate(0)" fill="#535353"/>
  </g>
</svg>
