<svg xmlns="http://www.w3.org/2000/svg" width="28" height="28" viewBox="0 0 28 28">
  <g id="Group_1267" data-name="Group 1267" transform="translate(-1.987 -2)">
    <g id="Group_1265" data-name="Group 1265" transform="translate(1.987 2)">
      <path id="Path_7580" data-name="Path 7580" d="M15.994,30A14,14,0,0,1,3.546,9.6a1,1,0,1,1,1.778.915A12.016,12.016,0,1,0,7.512,7.515,1,1,0,0,1,6.1,6.1,14,14,0,0,1,25.888,25.9,13.892,13.892,0,0,1,15.994,30Z" transform="translate(-1.987 -2)" fill="#df1414"/>
    </g>
    <g id="Group_1266" data-name="Group 1266" transform="translate(14.992 7)">
      <path id="Path_7581" data-name="Path 7581" d="M21,21a.994.994,0,0,1-.624-.219l-5-4A1,1,0,0,1,15,16V8a1,1,0,0,1,2,0v7.52l4.625,3.7A1,1,0,0,1,21,21Z" transform="translate(-15 -7)" fill="#df1414"/>
    </g>
  </g>
</svg>
