<svg xmlns="http://www.w3.org/2000/svg" width="14.25" height="24" viewBox="0 0 14.25 24">
  <g id="_1904669_call_chat_device_message_mobile_icon" data-name="1904669_call_chat_device_message_mobile_icon" transform="translate(-26)">
    <path id="Path_7553" data-name="Path 7553" d="M38.188,0H28.063A2.063,2.063,0,0,0,26,2.063V21.938A2.062,2.062,0,0,0,28.063,24H38.188a2.062,2.062,0,0,0,2.063-2.062V2.063A2.062,2.062,0,0,0,38.188,0ZM27.125,4.254h12V18.671h-12Zm.938-3.129H38.188a.937.937,0,0,1,.938.938V3.129h-12V2.063A.938.938,0,0,1,28.063,1.125Zm10.125,21.75H28.063a.938.938,0,0,1-.937-.937V19.8h12v2.141A.937.937,0,0,1,38.188,22.875Z" fill="#535353"/>
    <circle id="Ellipse_242" data-name="Ellipse 242" cx="1.125" cy="1.125" r="1.125" transform="translate(32 20.233)" fill="#535353"/>
    <path id="Path_7554" data-name="Path 7554" d="M53.693,9.345h2.953a.563.563,0,0,0,0-1.125H53.693a.563.563,0,0,0,0,1.125Z" transform="translate(-22.043 -6.679)" fill="#535353"/>
  </g>
</svg>
