<svg xmlns="http://www.w3.org/2000/svg" width="14" height="14" viewBox="0 0 14 14"><g transform="translate(-51.649 -51.648)"><path d="M58.649,65.648a7,7,0,1,0-7-7A7,7,0,0,0,58.649,65.648ZM58.649,64.544Z" transform="translate(0)" fill="#707070"/><path d="M166.736,170.934a.589.589,0,0,0,.838-.008l1.862-1.912,1.862,1.912a.589.589,0,0,0,.838.008.6.6,0,0,0,.008-.844l-1.878-1.927,1.878-1.928a.6.6,0,0,0-.008-.845.59.59,0,0,0-.838.008l-1.862,1.912-1.865-1.912a.59.59,0,0,0-.838-.008.6.6,0,0,0-.008.845l1.877,1.928-1.877,1.927a.6.6,0,0,0,.011.845Z" transform="translate(-110.787 -109.514)" fill="#fff"/></g></svg>