<svg xmlns="http://www.w3.org/2000/svg" width="25.5" height="24" viewBox="0 0 25.5 24"><g transform="translate(-23.5 -25.901)"><path d="M39.5,34.174a8.118,8.118,0,0,0-1.019-3.987.706.706,0,0,0-.97-.3.747.747,0,0,0-.291,1,6.877,6.877,0,0,1-1.121,8.1A6.419,6.419,0,0,1,28.2,40a6.817,6.817,0,0,1-3.018-7.573A6.585,6.585,0,0,1,31.5,27.446a6.164,6.164,0,0,1,2.521.5.731.731,0,0,0,.97-.4.767.767,0,0,0-.388-1A8.243,8.243,0,0,0,31.5,25.9a8.229,8.229,0,0,0-.728,16.4v3.589H29.076a.749.749,0,0,0,0,1.5h1.7v1.695a.753.753,0,0,0,.356.67.711.711,0,0,0,.742,0,.753.753,0,0,0,.356-.67V47.383h1.7a.749.749,0,0,0,0-1.5h-1.7V42.3A8.027,8.027,0,0,0,39.5,34.174Z" transform="translate(0 0)" fill="#535353"/><path d="M51.5,26a8.246,8.246,0,0,0-6.984,12.211.706.706,0,0,0,.97.3.747.747,0,0,0,.291-1,6.876,6.876,0,0,1,1.122-8.1,6.421,6.421,0,0,1,7.9-1.01,6.816,6.816,0,0,1,3.019,7.573A6.464,6.464,0,0,1,48.928,40.4a.731.731,0,0,0-.97.4.767.767,0,0,0,.388,1,6.684,6.684,0,0,0,2.376.6v3.588H49.077a.723.723,0,0,0-.651.366.766.766,0,0,0,0,.763.723.723,0,0,0,.651.366h1.7v1.695a.753.753,0,0,0,.356.669.711.711,0,0,0,.742,0,.753.753,0,0,0,.356-.669V47.482h1.7a.723.723,0,0,0,.651-.366.766.766,0,0,0,0-.763.723.723,0,0,0-.651-.366h-1.7V42.4A8.228,8.228,0,0,0,51.5,26Z" transform="translate(-10.499 -0.05)" fill="#535353"/></g></svg>