<svg xmlns="http://www.w3.org/2000/svg" width="28.659" height="31" viewBox="0 0 28.659 31">
  <g id="_7549058_user_interface_add_avatar_human_icon" data-name="7549058_user_interface_add_avatar_human_icon" transform="translate(-1.67 -0.5)">
    <path id="Path_1457" data-name="Path 1457" d="M6.55,7.12A6.62,6.62,0,1,0,13.17.5,6.626,6.626,0,0,0,6.55,7.12Z" fill="#2c367b"/>
    <path id="Path_1458" data-name="Path 1458" d="M1.67,26v2a3.5,3.5,0,0,0,3.5,3.5h16a3.5,3.5,0,0,0,3.5-3.5V26a11.5,11.5,0,1,0-23,0Z" fill="#2c367b"/>
    <path id="Path_1459" data-name="Path 1459" d="M27.213,15.349V13.732h1.616a1.5,1.5,0,0,0,0-3H27.213V9.116a1.5,1.5,0,0,0-3,0v1.616H22.6a1.5,1.5,0,0,0,0,3h1.615v1.616a1.5,1.5,0,1,0,3,0Z" fill="#2c367b"/>
  </g>
</svg>
