<svg xmlns="http://www.w3.org/2000/svg" width="23.224" height="23.265" viewBox="0 0 23.224 23.265">
  <path id="Icon_feather-phone-call" data-name="Icon feather-phone-call" d="M16.574,5.645a5.181,5.181,0,0,1,4.093,4.093M16.574,1.5a9.326,9.326,0,0,1,8.238,8.227M23.775,18V21.1a2.072,2.072,0,0,1-2.259,2.072A20.506,20.506,0,0,1,12.574,20a20.2,20.2,0,0,1-6.217-6.217A20.506,20.506,0,0,1,3.176,4.8,2.072,2.072,0,0,1,5.238,2.536H8.347a2.072,2.072,0,0,1,2.072,1.782,13.3,13.3,0,0,0,.725,2.912,2.072,2.072,0,0,1-.466,2.186L9.362,10.732a16.579,16.579,0,0,0,6.217,6.217L16.9,15.633a2.072,2.072,0,0,1,2.186-.466,13.3,13.3,0,0,0,2.912.725A2.072,2.072,0,0,1,23.775,18Z" transform="translate(-2.417 -0.672)" fill="none" stroke="#535353" stroke-linecap="round" stroke-linejoin="round" stroke-width="1.5"/>
</svg>
