<svg xmlns="http://www.w3.org/2000/svg" width="62" height="79" viewBox="0 0 62 79">
  <g id="_928426_bin_delete_empty_junk_remove_icon_1_" data-name="928426_bin_delete_empty_junk_remove_icon (1)" transform="translate(-22.519 -10.232)">
    <path id="Path_7603" data-name="Path 7603" d="M83.73,22.41v-.187c0-6.623-3.958-11.991-8.839-11.991H33.723c-4.884,0-8.843,5.369-8.843,11.991v.187Z" transform="translate(-0.788)" fill="#df1414"/>
    <path id="Path_7604" data-name="Path 7604" d="M83.273,42.922a5.172,5.172,0,0,0-3.948-1.838H27.713a5.175,5.175,0,0,0-3.95,1.838,5.286,5.286,0,0,0-1.181,4.229l7.5,47.945a5.207,5.207,0,0,0,5.131,4.427h36.6A5.209,5.209,0,0,0,76.95,95.1l7.5-47.945A5.284,5.284,0,0,0,83.273,42.922ZM38.958,92.4c-.087.008-.176.012-.261.012a2.979,2.979,0,0,1-2.953-2.738l-3.1-35.837a2.968,2.968,0,1,1,5.912-.521l3.1,35.838A2.988,2.988,0,0,1,38.958,92.4Zm17.528-2.984a2.969,2.969,0,1,1-5.937,0V53.436a2.969,2.969,0,1,1,5.937,0Zm14.426.258a2.977,2.977,0,0,1-2.952,2.738c-.084,0-.175,0-.262-.012A2.987,2.987,0,0,1,65,89.15l3.1-35.838a2.968,2.968,0,1,1,5.912.521Z" transform="translate(0 -10.29)" fill="#df1414"/>
  </g>
</svg>
