<svg xmlns="http://www.w3.org/2000/svg" width="28.96" height="26.283" viewBox="0 0 28.96 26.283">
  <g id="_759451_couple_equality_gender_lesbian_male_icon" data-name="759451_couple_equality_gender_lesbian_male_icon" transform="translate(-23.5 -25.9)">
    <path id="Path_1465" data-name="Path 1465" d="M41.532,34.971A8.709,8.709,0,0,0,40.384,30.6a.807.807,0,0,0-1.421.765,7.385,7.385,0,1,1-6.448-3.77,7.116,7.116,0,0,1,2.841.546.832.832,0,0,0,.656-1.53,9.514,9.514,0,0,0-3.5-.71,9.007,9.007,0,0,0-.82,17.977v3.934H29.784a.82.82,0,0,0,0,1.639H31.7v1.858a.82.82,0,1,0,1.639,0V49.451h1.912a.82.82,0,0,0,0-1.639H33.336V43.877A8.894,8.894,0,0,0,41.532,34.971Z" transform="translate(0 0)" fill="#535353"/>
    <path id="Path_1466" data-name="Path 1466" d="M52.516,26A9.025,9.025,0,0,0,43.5,35.016a8.709,8.709,0,0,0,1.147,4.371.807.807,0,0,0,1.421-.765,7.385,7.385,0,1,1,6.448,3.77,7.634,7.634,0,0,1-2.9-.6.832.832,0,0,0-.656,1.53,7.7,7.7,0,0,0,2.677.656v3.934H49.784a.82.82,0,1,0,0,1.639H51.7v1.858a.82.82,0,1,0,1.639,0V49.551h1.912a.82.82,0,1,0,0-1.639H53.336V43.977A9.007,9.007,0,0,0,52.516,26Z" transform="translate(-9.072 -0.045)" fill="#535353"/>
  </g>
</svg>
