<svg xmlns="http://www.w3.org/2000/svg" width="23" height="23" viewBox="0 0 23 23">
  <g id="Group_1280" data-name="Group 1280" transform="translate(-377 -526)">
    <g id="Path_1496" data-name="Path 1496" transform="translate(377 538)" fill="none">
      <path d="M3,0H8a3,3,0,0,1,3,3V8a3,3,0,0,1-3,3H3A3,3,0,0,1,0,8V3A3,3,0,0,1,3,0Z" stroke="none"/>
      <path d="M 3 1 C 1.897199630737305 1 1 1.897199630737305 1 3 L 1 8 C 1 9.102800369262695 1.897199630737305 10 3 10 L 8 10 C 9.102800369262695 10 10 9.102800369262695 10 8 L 10 3 C 10 1.897199630737305 9.102800369262695 1 8 1 L 3 1 M 3 0 L 8 0 C 9.65684986114502 0 11 1.34315013885498 11 3 L 11 8 C 11 9.65684986114502 9.65684986114502 11 8 11 L 3 11 C 1.34315013885498 11 0 9.65684986114502 0 8 L 0 3 C 0 1.34315013885498 1.34315013885498 0 3 0 Z" stroke="none" fill="#707070"/>
    </g>
    <g id="Rectangle_722" data-name="Rectangle 722" transform="translate(389 538)" fill="none" stroke="#707070" stroke-width="1">
      <rect width="11" height="11" rx="3" stroke="none"/>
      <rect x="0.5" y="0.5" width="10" height="10" rx="2.5" fill="none"/>
    </g>
    <g id="Group_1184" data-name="Group 1184" transform="translate(-6)">
      <g id="Rectangle_720" data-name="Rectangle 720" transform="translate(383 526)" fill="none" stroke="#707070" stroke-width="1">
        <rect width="11" height="11" rx="3" stroke="none"/>
        <rect x="0.5" y="0.5" width="10" height="10" rx="2.5" fill="none"/>
      </g>
      <text id="_1" data-name="1" transform="translate(387 533)" fill="#707070" font-size="5" font-family="SegoeUI-Bold, Segoe UI" font-weight="700"><tspan x="0" y="0">1</tspan></text>
    </g>
    <g id="Group_1185" data-name="Group 1185" transform="translate(6)">
      <g id="Rectangle_720-2" data-name="Rectangle 720" transform="translate(383 526)" fill="none" stroke="#707070" stroke-width="1">
        <rect width="11" height="11" rx="3" stroke="none"/>
        <rect x="0.5" y="0.5" width="10" height="10" rx="2.5" fill="none"/>
      </g>
      <text id="_1-2" data-name="1" transform="translate(387 533)" fill="#707070" font-size="5" font-family="SegoeUI-Bold, Segoe UI" font-weight="700"><tspan x="0" y="0">1</tspan></text>
    </g>
    <text id="_2" data-name="2" transform="translate(381 546)" fill="#707070" font-size="5" font-family="SegoeUI-Bold, Segoe UI" font-weight="700"><tspan x="0" y="0">2</tspan></text>
    <text id="_3" data-name="3" transform="translate(393 546)" fill="#707070" font-size="5" font-family="SegoeUI-Bold, Segoe UI" font-weight="700"><tspan x="0" y="0">3</tspan></text>
  </g>
</svg>
