<svg xmlns="http://www.w3.org/2000/svg" width="23.475" height="23.475" viewBox="0 0 23.475 23.475"><path d="M16.794,5.706a5.262,5.262,0,0,1,4.16,4.153M16.794,1.5a9.471,9.471,0,0,1,8.373,8.348m-1.054,8.395v3.146a2.1,2.1,0,0,1-2.3,2.1,20.864,20.864,0,0,1-9.089-3.219,20.515,20.515,0,0,1-6.319-6.309A20.786,20.786,0,0,1,3.176,4.849a2.1,2.1,0,0,1,2.1-2.3h3.16A2.1,2.1,0,0,1,10.538,4.36a13.478,13.478,0,0,0,.737,2.955A2.1,2.1,0,0,1,10.8,9.533L9.464,10.868a16.837,16.837,0,0,0,6.319,6.309l1.343-1.335a2.108,2.108,0,0,1,2.222-.473,13.536,13.536,0,0,0,2.96.736,2.1,2.1,0,0,1,1.806,2.139Z" transform="translate(-2.466 -0.727)" fill="none" stroke="#535353" stroke-linecap="round" stroke-linejoin="round" stroke-width="1.4"/></svg>