<svg xmlns="http://www.w3.org/2000/svg" width="20" height="24" viewBox="0 0 20 24">
  <g id="Layer_19" data-name="Layer 19" transform="translate(-4 -1)">
    <path id="Path_10" data-name="Path 10" d="M14.8,13.8A6.609,6.609,0,0,1,8,7.4,6.609,6.609,0,0,1,14.8,1a6.609,6.609,0,0,1,6.8,6.4A6.609,6.609,0,0,1,14.8,13.8Zm0-11.2A4.957,4.957,0,0,0,9.7,7.4a4.957,4.957,0,0,0,5.1,4.8,4.957,4.957,0,0,0,5.1-4.8A4.957,4.957,0,0,0,14.8,2.6Z" transform="translate(-0.8 0)" fill="#2e397d"/>
    <path id="Path_11" data-name="Path 11" d="M19.833,28.39H8.167A4.086,4.086,0,0,1,4,24.39v-3.2a.794.794,0,0,1,.408-.688l4.167-2.4a.851.851,0,0,1,1.064.327.78.78,0,0,1-.23,1.049L5.667,21.646V24.39a2.452,2.452,0,0,0,2.5,2.4H19.833a2.452,2.452,0,0,0,2.5-2.4V21.646l-3.758-2.168a.786.786,0,0,1-.046-1.436.862.862,0,0,1,.88.06l4.167,2.4A.8.8,0,0,1,24,21.19v3.2A4.086,4.086,0,0,1,19.833,28.39Z" transform="translate(0 -3.39)" fill="#2e397d"/>
  </g>
</svg>
